<?xml version="1.0" encoding="UTF-8"?>
<svg id="Layer_2" data-name="Layer 2" xmlns="http://www.w3.org/2000/svg" viewBox="0 0 475.58 149.77">
  <defs>
    <style>
      .cls-1 {
        fill: #451113;
      }
    </style>
  </defs>
  <g id="Layer_1-2" data-name="Layer 1">
    <g>
      <g>
        <path class="cls-1" d="M6.39,137.23H1.6v12.3h1.91v-4.37h2.89c2.52,0,4.1-1.56,4.1-3.97s-1.58-3.95-4.1-3.95ZM5.98,143.58h-2.48v-4.77h2.48c1.68,0,2.62.92,2.62,2.38s-.94,2.4-2.62,2.4Z"/>
        <path class="cls-1" d="M30.53,138.81v-1.58h-8.65v12.3h8.65v-1.58h-6.76v-3.95h6.13v-1.56h-6.13v-3.63h6.76Z"/>
        <path class="cls-1" d="M51.72,141.02c0-2.33-1.56-3.79-4.02-3.79h-5.55v12.3h1.86v-4.72h3.13l2.56,4.72h2.01v-.19l-2.7-4.69c1.7-.43,2.7-1.74,2.7-3.63ZM44.02,143.27v-4.49h3.32c1.5,0,2.48.89,2.48,2.23s-.99,2.25-2.48,2.25h-3.32Z"/>
        <path class="cls-1" d="M68.05,142.58c-2.01-.55-3.49-.86-3.49-2.22,0-1.25,1.2-1.76,2.59-1.76,1.64,0,2.73.76,3.28,1.97l1.51-.72c-.68-1.64-2.15-2.79-4.73-2.79-2.34,0-4.53.92-4.53,3.32s2.56,3.1,4.44,3.59c1.99.51,3.16.92,3.16,2.3s-1.27,1.89-2.81,1.89-2.97-.68-3.53-2.34l-1.53.76c.61,2.09,2.6,3.15,5.02,3.15s4.73-.88,4.73-3.38c0-2.29-1.72-3.11-4.12-3.77Z"/>
        <path class="cls-1" d="M89.27,137.13c-3.63,0-6.31,2.68-6.34,6.31.02,3.63,2.71,6.34,6.34,6.34s6.37-2.71,6.35-6.34c.02-3.63-2.69-6.31-6.35-6.31ZM89.27,148.07c-2.52,0-4.41-1.97-4.43-4.64.02-2.66,1.91-4.63,4.43-4.63s4.44,1.97,4.44,4.63-1.86,4.64-4.44,4.64Z"/>
        <path class="cls-1" d="M115.7,137.23v9.04l-7.13-9.04h-1.4v12.3h1.91v-9.02l7.13,9.02h1.4v-12.3h-1.91Z"/>
        <path class="cls-1" d="M135.05,137.23h-1.93l-5.08,12.19v.11h2.03l1.13-2.92h5.75l1.15,2.92h2.01v-.11l-5.06-12.19ZM131.79,145.1l2.28-5.84,2.3,5.84h-4.57Z"/>
        <path class="cls-1" d="M152.57,147.89v-10.66h-1.93v12.3h7.87v-1.64h-5.94Z"/>
        <path class="cls-1" d="M189.47,142.58c-2-.55-3.48-.86-3.48-2.22,0-1.25,1.19-1.76,2.58-1.76,1.64,0,2.73.76,3.28,1.97l1.51-.72c-.68-1.64-2.15-2.79-4.73-2.79-2.34,0-4.53.92-4.53,3.32s2.56,3.1,4.44,3.59c1.99.51,3.16.92,3.16,2.3s-1.27,1.89-2.81,1.89-2.97-.68-3.53-2.34l-1.53.76c.61,2.09,2.6,3.15,5.02,3.15s4.74-.88,4.74-3.38c0-2.29-1.73-3.11-4.13-3.77Z"/>
        <path class="cls-1" d="M203.88,137.23v1.64h3.9v10.66h1.92v-10.66h3.9v-1.64h-9.71Z"/>
        <path class="cls-1" d="M232.41,137.23l-3.3,5.7-3.28-5.7h-2.01v.08l4.31,7.29v4.93h1.92v-4.93l4.37-7.29v-.08h-2.01Z"/>
        <path class="cls-1" d="M247.1,147.89v-10.66h-1.92v12.3h7.87v-1.64h-5.95Z"/>
        <path class="cls-1" d="M264.25,137.23v12.3h1.93v-12.3h-1.93Z"/>
        <path class="cls-1" d="M286.92,137.23v9.04l-7.13-9.04h-1.4v12.3h1.91v-9.02l7.13,9.02h1.4v-12.3h-1.91Z"/>
        <path class="cls-1" d="M312.67,142.51h-5.63v1.4h3.95c-.06,2.5-1.82,4.16-4.26,4.16s-4.47-1.97-4.47-4.69,1.93-4.67,4.47-4.67c1.58,0,2.74.68,3.54,1.63l1.25-1.08c-1.02-1.32-2.81-2.22-4.82-2.22-3.65,0-6.35,2.71-6.35,6.34s2.7,6.35,6.35,6.35c3.83,0,6.48-2.95,5.96-7.22Z"/>
      </g>
      <path class="cls-1" d="M36.67,119.26l.11-.54-.86-.96.32-.21.11-.64-.32-1.17-.42-1.07-.42-.32-.11-.96-.32-.85-.75-.64-.11-.85.32-.11-.75-1.17-.42-.22h-.32l-.85-1.17v-.63l-.11-.96.32-.85-.1-.22v-.85l-.22-.42-.64-.64.11-.86.11-.53-.22-.21-.85-.96-.32-.96-.42-.75-.32-.42-.11-.85-.42-.22-.32-.74.32-1.07.1-.43-.21-1.07-.53-.42v-.64l-.22-.22-.42-.63-.11-.43-.32-.63-.32-.75.64-.11.86-.21.42-.43.11.43.64-.11.74-.75.22-.53v-.42l.74-.64.86-.22.53-.21.32.21.96-.63.32-.75.32-.53.32-1.39.74-.21-.1-.53.53-.42.32-.54.75-1.07v-.74l-.22-.86-.42-1.17-.11-.64.53-.22.42-.53.53-1.28-.42-.1.22-.53-.32-.86-.21-.75.1-.53-.32-.85.22-.42-.64-.42.11-.64v-1.17l-.11-.53.11-.53v-1.71l-.32-.86-.32-.32-.86-.22-.21-1.07-.22-.32-.42-.32-.64-.96-.42-.85-.86-.22-.63-.53.21-.64-.74-.42-.53-.53-.53-.11-.75-.1-.96.1-.32-.21-.64-.32-.32-.32-1.07-.96-.85-.32-.54.42-.74-.32-.64.11-1.07.32-.42-.32h-.64l-.96-.22-.75.11-1.07-.22-.53.22-.22-.32-.64.11-.74-.21h-1.39l-.1.1-.96-.21-.53.32h-.96l-.64-.42v.22l-.53-.11-1.07-.22-.22.53-.96.11h-1.38l-.75-.11-.53.11-.32.22h-1.07l-1.17-.22-.53.22-.22-.53-1.17.53.11.74-.32.86.32.53.11.85-.64.64.21.53-.53.75-.21.42-.53.75.42,1.07-.32,1.38.42,1.17v.22l.32.74-.21.75.32.22.11,1.27-.11,1.17.11.32v1.17l-.11.32v1.92l.11.53.32.96-.96.96.53.53.22.53v1.28l-.11.53-.42.1-.32.64v.53l.42.96-.1.74.21.64.11.96.11.96.32.74-.11.86.11,1.27.22.32v.85l-.53.86.32.32-.11.53-.85,1.6v1.28l-.11.64.11.11.53,1.07.32.63-.1.53-.22.53v.53l.22.64.1.43.11.63v.32l-.32.85.11.86-.22.53-.32.32.21.53-.32,1.17-.22.75.32,1.17.42.53v1.49l.21.75.11.74v.11l-.32,1.17-.11.53h-.11l-.11.96v.42l.43.64.32.32v.85l-.32.64.21.85-.32.96.21.43.32.85-.32.22.75,1.07.42.11.32.85,1.07.53.32-.11h.86l.11-.1,1.38-.22.11.11,1.17-.53.32-.11.42-.42.32-.96.11-.53-.11-.32-.22-.42v-.96l.22-1.17-.53-1.28.21-.53-.53-.32.43-.43-.32-.74.22-.43.42-.96.32-.42-.53-1.17-.32-.32-.22-.64-.32-.53.32-1.07v-1.07l.22-.86.42-.85.22-.22-.32-1.17v-.11l-.21-.74-.22-1.07-.11-.32.53-.53-.1-.63.32-.43v-.53l.11-1.07-.11-.53-.53-.32-.42-1.07.21-.53-.21-.32.21-.85-.11-.53-.32-1.17.22-.22.85-1.07h.96l.64.11.11.11.53-.11h1.39l1.07.22.74-.43h.53l.75-.21.53.32,1.07.22.53-.11.75-.11.96.22-.11.85.53.11.22.42.96.96.11.85-.11.96-.11.22.53.85.32.86.32.32-.22,1.07.32.32.42.74.42.86-.32,1.07.53.32.42.32v.32l.86.75.32.42.11.96.42.43.32,1.07-.22.32.75,1.28-.11.21-.22.53v.53l.22.86.74.32.32.86-.11.32.32,1.17.11.21.11.32.75.64.32.64.42.96.22.64-.42.21.42,1.6.32.53-.21.75-.11.53.64.53h.85l.32.53.53.11.53.32.63.32,1.07-.32.53-.63,1.07.1.32-.21.32.32.75-.42-.22-.42.75-.75-.53-.85ZM26.44,85.35l-.75.53-.85.22-.43.53-.63.42-.75-.11h-.64l-1.17-.1-.42-.11h-1.49l-.53-.22h-.75l-.32.22-.96-.53-.21-.11-.96.42-.75.22h-.64l-.53-.42-.53-.32-.42-.11-.75.43-1.17-.22-.53.53-.21-.22-.53.22-1.17.64.11-.32-.54-1.07.54-.74.32-.53-.11-.11.32-.53-.43-1.28h.22l-.22-.75-.32-.32-.42-.64.21-.74.11-.43-.22-.85.32-.53-.11-.86.75-.1-.11-1.5.32-1.17-.21-.11.21-.64-.42-.53-.32-1.07-.32-.42.32-.86.32-.53v-.53l-.32-.64-.32-.74.22-.64.22-.86v-.74l-.43-.53v-.53l-.32-.32v-1.28l-.11-.21,1.07-.53.42.32.96-.53.42.11.64-.22.53.22.74-.22.32.22.74.11.53.53.54.21,1.07-.1,1.07-.11.42-.42.32-.32.86.11.42.32.96.22.42-.11.86.22.21.21,1.07.22.86.32.64.63,1.17.22.53-.11.74.11.86.53.42.11v1.07l.32,1.17.53.64.22.1.53.86-.11.32.22.96-.64.32-.22,1.17.11.42-.11.53v.85l.32.75-.11.53-.22.64.64,1.07.32.22-.22.74.32.75.1.85-.32.53h-.42l-.22,1.07-.11,1.07.11.11-.53.86-.42.74-.22.43-.32.21-.53.53Z"/>
      <path class="cls-1" d="M95.09,90.47l-.32-.96-.22-.96-.11-.32.43-.64-.43-.21-.21-.75-.22-.75-.11-.42-.1-.96.21-.53.11-.32.11-.96-.53-.75-.11-.63-.22-.22.32-.75-.75-.21-.32-.75.21-.32-.21-.96-.42-.42-.53-.96-.53-.53-.22-.42-.53-.96-.96-.75-.22-.32-.75.11-.53-.74-.63-.32-.86-.74h-.53l-.42.21-.96-.21h-1.5l-.74-.64h-.11l-.96-.86-.75.22h-1.92l-.32.11-.85.53-.96-.22-.32-.11-.96-.1-.75-.32-.42.32h-1.17l-1.28.32-.32.53-.32.32-.53.11-.74-.21-.96.1-.42.53-.64.22-.32.11-.53.53-.75.42-.53.64-.53.22v.32l-.64.64-.21.85-.96.75-.1.85-.32.22.22.75-.53.74-.32.75-.21.42.11.53.53.42-.53.42-.22.75-.22.32-.21.96.32.53v2.45l.22,1.17-.32.42.11,1.39.11.32-.32.43.21,1.17-.21.53-.64.64-.11.75.11,1.07.32.32.11.42.42.74-.32,1.07.32.43-.42.96.42.32v.53l.22.86v.85l-.42.53.21,1.07-.64.53-.1.32.1.96-.21.75.11.42.42.75.32.53.11.21-.32,1.17.42.42-.11.53.11.96.32,1.07-.21.1-.22.86-.11.85.42.42h.43l.74.86v1.28l.53.96.53.85.53.22v.75h.54l.63.42.32.42.96.53h.32l.43.22,1.07.42,1.17.42.32.22,1.28.32h.85l.85-.32.43.11.42.21.85.42.43.22.74.53.96.11.53-.42.21.1.53-.63h1.39l1.07.21.42-.11.32.22,1.17.32.32-.63.53-.22.42-.22.42.43.96-.32v-.21l.43-.32.53-.32.64-.42.96-.32.32-.53.42-.11.75-.53.53-.42.75-.22.53-.42.96-.64.32-.42v-.22l.64-1.07-.32-.74.32-.64-.21-.22.1-.96v-1.28l.11-1.17.53-.53.22-.54.53-.42-.11-.74.22-.32v-1.38h-.11l-.53-.53-.42-.32.1-1.07.11-.42.53-.32.32-.43.21-.64-.53-1.17.22-.86v-.96l.11-.75v-1.07l-.22-.85v-.64l.22-1.07v-.86l.21-1.07-.21-.85v-.75l.11-.85-.32-.53.42-.42v-.22ZM87.95,91.22l-.21.74-.22.32-.42.96.75.32.1,1.17-.53.86-.21.53-.42.53v.42l.32,1.17.11.11-.53,1.17.42.64.22.53v1.07l.21,1.17-.42.64.42,1.07.11.22.32.53-.21.64v.64l.21.42-.32.53v1.38l-.22.75-.32.75v.96l.32.53-.63,1.17-.11.21-.64.42-.32.75-.63.53-.43.11-.74.75-.75.21-.64.42-.32.32-.64.11-.75.32-.21-.22-.96.32-.63.11-.53-.32h-1.39l-.42-.11-.22-.1-1.27.1-.75-.42-1.49-.42-.53-.11-.86-.64-.11-.32-.96-.22-.53.22h-.64l-.42-.64.64-.32v-1.28l-.11-.42.11-.75-.53-.96-.32-.22-.1-.64-.22-.96.32-1.49.43-.42-.22-.22.42-.74-.21-1.17-.11-.22-.75-1.39.32-.32-.53-.64.32-.85.32-.42v-.86l-.21-.42-.53-1.28v-.85l.32-.53.11-1.17.53-.86-.32-.32-.32-.75-.32-.53.11-.85.1-.32.43-.96-.11-1.38.42-.22-.22-.75h.11l.11-1.17.11-.75.21-.42v-.42l-.63-.96-.11-.32-.22-1.17.75-.75.21-.85-.42-.75-.32-.53.64-.53-.11-.32.42-.53.11-.11.75-1.07.74-.32h.32l.42-.53.21-.53h.43l.74-.32.75-.11.64.22,1.07.53.53-.11.11-.42,1.27-.32.64.32.32-.22.96-.53.75-.11.63.22v.53l.53.22.53.42.86.11.11.1,1.27.75.64.42h.22l.96.75-.11,1.17.64,1.38v.22l.11.64v1.07l.75,1.17.21.21.11,1.28-.11.22.11.74.32.22-.32.85-.11.42.53.86.11.75-.22.53Z"/>
      <path class="cls-1" d="M151.17,119.26l.21-.54-.63-.96-.11-.53-.42-.32-1.17-.22h-.53l-.64.42h-.86l-.53-.42-.63.11.32-.85.53-1.17-.32-.64.32-.22.11-.53-.32-1.17-.21-.63-.53-.96.42-.53.32-.85-.1-.64-.43-1.17.22-.21v-.96l.22-.42v-.53l.21-.42v-1.71l-.64-.75v-.96l-.32-.85.11-.53.32-1.17.11-.11.75-.64-.22-.53.42-.53-.21-.42-.32-1.28-.11-.42.11-.64.11-1.28.22-.53-.11-.53-.53-.96v-.64l-.11-1.38-.11-.22v-.64l.22-1.07v-2.02l-.11-.64v-.75l.11-.42v-.96l-.11-.86.22-.32-.32-.42.11-1.39-.11-.21.32-1.28-.11-.64.32-.11-.42-1.17-.86.1-.21-.53-.42-.53.42-.32.11-.96-.32-.32-.53-.74-1.27-.11-.64-.53-.53-.11-.75.11-.96-.53-.11-.32-.42-.21-.96-.22h-.64l-.32-.11-1.49.43-.53.21h-.11l-.42.64-1.07-.11-.64.53-.42.42-.64.22-.22.75-.63.1-.22.53-.42.43-.11.42-.64.75-.96.74-.64.42-.42.53v.53l-.86.86-.42.32-.21-.1-.11-.64.21-1.07.11-.64.42-.42v-.43l-.21-.53.32-1.07v-.74l-.53-.75-.64-.42-.32-.11-.32-.22-.32-.32-1.07-.64-.96.53h-.75l-1.07.64-1.07-.32-.32-.11h-.74l-.32-.32-1.17-.1-.64.32-.32.22-.53-.64-.64.21-.63.32-.32.32v.64l-.53.42-.21.42.63.43.32.53.53.85.11.42.64.53h.74l.64.11.42-.11h.64l.85-.1h.32l.53.42-.22.64v.85l-.11.53-.32.64-.42,1.17-.22.42.11.22-.32,1.38-.22.42.11.43.11.53.1.96.32.96.21.11.22.42.11,1.28-.32.64.22.32-.64,2.13-.11.53.43.64.1.32.43.64-.11.64.21.96h-.1l-.11.75-.75,1.17-.11.96-.21,1.07.32.53.22.86.32.64.32,1.17-.43.53v1.07l.22.32-.22.53.32.75.11.53v.42l-.22.85.22.43-.22.42.11,1.27.11.22.42.75-.11,1.38-.11.11-.21,1.17-.43.74.22.86-.11.42.53.64.22,1.17-.22.64.11.42-.53-.22v-.64l-1.17-.42-.32.32-.42.1h-1.07l-.32.32-.42.21-.64.43-.53.42.22.53-.53.11-.32,1.07.32.53.1.64v.21l.32.75v.22l.74.42.75.11.75-.64.53.11,1.38-.43.64.53h2.02l.43-.21,1.27-.42.75.32.85.75.43.1.96-.21.11.21,1.07-.1.74-.22.53-.11.64-.53h.53l1.17-.11.32-.53.32-.64.22-.21.21-1.07h-.32l-.22-1.07h-.64v-.64l-.53-.32-.53-.32.11-.64h-1.17l-.42.32-.53.21-.11.22h-.64l-.32.64-.32-.64-.11-.32.11-.74v-1.28l-.32-.22.22-.74.11-.53-.22-.64-.42-.75.53-.53-.22-.63.53-.22.22-.42-.64-.64v-.86l-.53-.85.32-1.07-.21-.64v-.42l.1-1.17-.21-.64.32-.11.32-1.27.11-.53.21-.64-.64-1.5-.32-.21.21-1.17-.21-1.07.42-.32.32-.43v-.32l.53-1.17-.43-.32v-.86l-.53-.22.11-.42-.11-.64.11-.85.11-.42-.11-.53v-.86l.22-.53v-1.17h.32l.32-.96.63-1.17-.1-.96v-.32l.42-1.07.53-.32.85-.96.42-.11.32-.64v-.53l.21-.85.64-1.07.43-.11v-.42l1.17-.53.22.1h.53l.96-.53.43-.32.42-.22.53-.42.74-.11.86.22v.11l.75.32.21.32.32.53.42.74.42.22v1.07l-.64.42-.11,1.39.11.53.53.1v1.39l-.32.96.53.75-.22.11.22.64-.11,1.07.22.42-.32.32v1.39l.11.32v.42l.32.64.11.64.32.75-.64.32-.32.85-.1.32-.11.64v.74l.11.32-.11.96.53,1.28.11.74-.11.86-.42.64-.32.96.11.22.53,1.27h.42l-.21,1.39h.1l-.42.64v.96l-.53,1.17.22.64v.63l.11.53.1.86-.1.74-.11.54.21.32-.63.53.63.85-.1.75.1.11-.42.53v1.38l.32.22.74.32-.32.96-.53.1-.11.86-.11.32.42.32.22.63.22.43v1.17l.42.42.42.32.22.53,1.07.32,1.07.85h.64l.53.22.85-.53.22-.11.96-.11.64-.21.85.32.11.11,1.6-.22.32-.32.96-.53.53-.32.32-.85v-.42l-.32-.53Z"/>
      <path class="cls-1" d="M202.24,119.15l-.43-.64v-.32l-.53-.1-.21-.43-.42-.42-1.07.22-.85-.11-.53-.32-.22-.11-.32-.64-1.07-.22-.64.11-.32.11-1.07-.11-.32.22-.53.21-.42.32-.53.21-.96.22-.32-.85-.42-.43v-.85l.11-.64.21-.42.22-.32.53-.85-.11-1.28.43-.21-.11-.75-.32-.85.32-1.07v-.43l.21-1.27-.1-.53-.43-.53-.64-.53-.21-.43-.32-.74.64-.75.32-.75.1-.85v-.53l-.1-.32v-1.17l-.22-1.07v-1.17l.22-.32.1-1.27.54-.42-.11-.64-.22-.64v-.53l.11-.64-.32-1.17-.1-.32-.53-.75-.11-.75.11-.63-.22-.96.22-.42-.22-.42.85-.96v-.22l.43-1.49-.43-.43-.42-.96-.32-.96v-.75l.32-.53.42-.64.43-.32-.22-.64-.11-.64.11-.53-.42-1.17.42-.42v-.53l.42-1.07.11-.42-.21-.42-.32-.86-.64-.64v-.74l-1.38-.42-.22.21-.53-.21-.85.1-.64-.42-1.07-.32-.53-.22-.32.22h-1.17l-.1.74-1.17.22-.32-.32h-.21l-.42.1-.75-.32-1.28-.11-.74.32-.43-.64h-.64l-1.27.21-.42.22-.86-.11-.96.22-.32-.64-.74.11h-.86l-.63.53-.53.85-.22.42-.32.32-.43,1.28-.21.1.53.75.11.64.85.53v.42l1.07.22.32-.22.64.42,1.17-.42.53-.22.53.32.96-.42.96-.53,1.17.32.53.11,1.07.11h1.17l.63.1.75-.63h.75l.53.85.1.32-.42.64-.11.96-.21.21v1.28l-.32.53-.1.74.1.32-.32.96.42.86-.32.96.11.42.42.75.11.85-.11.64.42.42.11.64.32.64-.53.64-.11.85-.53.64.22.85-.22.75v1.28l-.1.32.1.96.53.63.64,1.17-.74,1.17-.22.11-.42,1.38.42.43v.42l.11.32-.22.64.42.85-.21.32-.22.42.11.75-.22.42.11,1.07-.11.75v.53l.75.85-.11.53.32.42-.11.86.21.64-.63.74.32.64.11.96.42.53-.11.75-.11.64-.21.53.21,1.07-.21.42-.22.42-.11.53-.63.32-1.6-.86h-.75l-.32.11-.42-.42-1.38-.11-.75-.74-.96.21-.53.42v.32l-1.28.32-.21-.53-.86.42-.53.11-.42-.11-.32.53-.53.86v.32l-.21.43.11.53v.63l.21.64.75.43.53.1h.53l.32.43.75.42.64-.22,1.07.42.32.22h.86l.85-.96.64.11.53-.53.53.21.86-.32.96.32.42-.32.75.32.53.53,1.17.32.21-.11h.53l1.17-.32h.42l.75-.1.64-.53.53.21.74.11.53-.22h.32l1.17.22.64.32.85-.21h.32l1.07.42h.96l.32-.11.42-.32h.96l.21-.22.42-.11,1.07-.63.1-.32.32-.22h.74l.64-.85-.21-.42ZM192.64,61.15l-.42-1.17-.22-.43.32-.53.42-.32-.64-.86-.11-.11-.11-.63-1.17-.32-.22-.11h-.75l-.32-.1-.64-.32-.96.32-.86.96-.85.11-.86.1h-.53l-.42.54-.74-.11v.74l-.11.64v.11l.32.75-.21.96.32.32.11,1.39.21.53.11,1.38.22.43.96.1.64-.53h.42l.86-.21.21.32.42.32.75.1.32-.1h.64l.75-1.07.11-.11.64-.53.85-1.17.75-.86-.22-.53Z"/>
      <path class="cls-1" d="M257.35,110.09l.42-1.07-.53-.21.22-.75-.22-.32-.64-.43.22-1.49-.11-.22-.11-.53.22-.63.11-.86-.22-.75-.11-.96-.42-.21-.64-.75-.21-.53-.11-.42-.64-.75-.32-.75-.32.11-1.07-.74h-.11l-1.17-1.17-.21-.42-.32-.43-1.17-.64-.64-.42-.53-.32-.32-.11h-.53l-.64-.22-.85-.32-.64.11h-.64l-1.07-.11-.21-.11-1.07-.42-.53.21-.53-.42h-.63l-.86.22-.32-.22-.75-.21-.42-.11-.42-.22-.32-.42-.85-.11-.64-.53-.42-.11-1.17-.53-.75-.1-.64-.64-.63-.53-.43-.43-.53-.53-.11-.63.22-.64-.22-.42.43-.86-.43-.53-.32-.42-.22-.86v-.32l-.1-.32-.43-.96.64-.42.53-1.49h.32l.21-.53.22-1.07.85-.96.22-.42.42-.11.86-.53,1.07-.42.42-.32h.75l1.38-.32.22.53.85.11.42.22,1.17-.42.75-.11.74.64.86.63.53.53.22.11,1.07.53.1.53.43-.1.63.53.64.53.64.74.42.64.86.75.32.96.53-.11.11.75.64.11.42.21.42.53.96-.11.74-.63.32-.75.32-.53h.53v-1.39l.11-.32.75-.64.1-.53-.1-.53-.11-.64v-.32l-.42-1.28-.53-.85.42-.53-.22-.53-.21-.53.74-.64.22-.11.32-.64-.74-.21-.32-.43h-.53l-.42-.63-.75.1-.74.43-.22.32-.64-.11-.53,1.07-.64.53-.74.43-.22.85-.53.11-.75-.75-.1-.11-.54-.21-.74-.96-.42-.32-.32-.75-.42-.1-.32-.53-1.28-.75-.42-.11-.96.11.11.22-1.07.42-.42-.53-.53.11-.75-.53h-2.02l-.42-.11-.96.32-1.07.64-1.17-.32h-.32l-.96-.22-.86,1.17h-.1l-.53.64-.22.1-1.07.53-.96.32-.32.21-.64.32-.96,1.07-.42.11-.42.53-.53.53-.11.53-.42,1.38-.43.96.11.32-.74.42-.11.75.32,1.38-.11.64.22.53v.11l.11.53-.32.53.11,1.49.11.11-.11.53.11.96.11.75v.42l-.11.75.22.42.53,1.28.85.64-.11.63.42.22.64.86.64-.11.53-.11.43.75.42.21.32.42v.96l.86.64.74.21.96.22.53-.11.54-.32.85.42.85.53.53.32.32.32.11.1,1.92.43.32.1.85-.53.96.43,1.17-.22.32.11.42.32,1.38.42h1.07l1.5.11.42.53.53.32.32.32.86.53.42.42h.22l.21.64.42,1.07.43.42.21.75.22.96.53.75.22.53v.32l.1.53.22.32-.32.53.42.85-.11.64-.32.43-.53,1.38-.22.64-.32.85-.32.53.11.11-.75.64h-.74l-.96.64-.32.53-.53.53-.32.11-.63.42-.96-.11-.32.22h-.32l-.75-.11-.53.11h-.75l-.32.1-.64.43-.42-.11h-1.17l-.22-.32-.53-.21h-.42l-1.17-.22-.64-.21-.64-.53-.85-.43-.32-.63-.32-.54-.96-.53-.11-.42-.53-.32-.85-.42.53-.32-.22-.53-.11-1.17-.74-.1-.43-.22-.32-.32h-1.07l-.64-.21h-.53l-.22.11-.85-.22-.42.53-.43.64-.21.75v.63l.21.53-.1.32.32,1.38-.11.32.22.85-.11,1.28-.22.64.11.63-.32.86.32.42-.64.96.43.54.42.21.64.11.64.75.21.1.32.53.53-.63.32-.32.11-.32.96-1.17h.11l.53-.53.32-.42.64.32,1.17.22.11.42,1.38-.11.32.42.32.64.32.22.74.64.42.1v-.21l.53.21.43.53h.21l.75.43.53-.11,1.17.21h.64l.42-.1.64.42.42-.11.42.22.53-.32.64.11.42-.32.64-.64.64-.42.53-.22h.75l.85.11.22-.11.64-.42.53-.75.53-.22.96-.63,1.17-.75.42.32.32-.42.43.11,1.07-.75.64-.64.53-.32v-.22l.42-.74.74-.42.11-.75.32-.42-.22-.22.32-1.28.32-.42.21-.11.11-1.17-.11-.43-.21-.32v-.75h.53Z"/>
      <path class="cls-1" d="M313.42,112.75l-.42-1.27.42-1.39-.21-.42-.22-.42-.11-1.07.11-.42v-.96l-.11-.74-.1-.11-.75-.42-.64.1-.21-.1-.96.1-1.07.64-.53.11-.32,1.39.21.42-.32.64.21.21-.21.64.11,1.17-.96.64-.32.11-.75.74v.53l.32.75-.22,1.07-.21.11-.43.53-.74,1.17-.53.74-.86-.11-.53-.32-.21-.11-1.17.11-.42-.22-.75-.1-.53.21-.42-.21-.96.32-1.17.32-.32-.21-.64-.53-.32-.96h-.32l-.1-1.39-.64-.22-.11-1.38.11-.42-.11-.96v-1.17l-.32-.96.32-.21-.32-.75v-.32l.53-1.28v-.64l-.32-1.07-.21-.32v-.75l.1-1.28.22-.21.75-.53-.11-.75.11-1.28-.32-.21v-.64l-.11-1.07-.32-.11-.32-.64.1-.42.43-.85-.22-1.17v-.96l.42-.42.11-.11-.11-1.17-.21-.32-.75-.21v-.86l.22-.21-.11-.64.42-.64-.22-1.07-.42-.75.11-1.17.11-.42.21-1.07-.21-.85v-1.39l.42-.64.22-1.38-.11-.32v-.32l-.32-1.28.53-1.07.32-.53.85-.11.75-.21.22.11.74.42h.53l.96-.22.22.11.75-.42.85.21.32.43,1.27-.22.11-.32,1.17-.43.32-.74-.53-.86-.53-1.07v-.32l-.64-.53.11-.32-.96-.53-.22.22-.74.11-.53.11h-.75l-.96.1-.75-.32-.53.42-.11-.11h-1.49l-.53-.21-.64-.11.11-.85v-1.61l.11-.21v-.53l.11-1.28-.22-.75.11-.53.11-.21v-1.49l.42-1.28.11-.64-.64-.53-.32-.53.11-.42-.85-.75-.32-.42-.53-.64-.53-.32-.53-.43-.74-.1-.75.63h-.75l-1.07,1.28-.64.75v.53l-.32.21.11.86.21,1.07.11.32.22.53-.32.75.11.85-.21.96.1.21-.32.64.32.96.11.32.11.74-.22.43.32.32.21.86-.53.1-.42.32h-1.27l-.53.11-.11-.32-.53-.32-.53-.32-.43.22-.96-.22-.11.43-.96-.32-.96-.32-.42-.11-1.28.53-.22.32-.53.22-.53-.11-.53.64h-.53l-.53.96-.21.32-.11.74-.53.32.21.74.75.43.32.53h.64l.11.42.85.42.54-.32.74-.22.64-.11.85.11.32.11h.74l.32.11h1.07l.75-.11h.21l.86.21.11-.1h1.38l.32-.22h1.17l.11.53-.22.85-.32.53.32.22-.21.64v.96l-.42,1.39.21.1-.21.75.21,1.39v.42l-.42.32-.11.75.64.42.32.75-.1.64v1.17l-.22.53.11.64.11.43-.96.85-.32,1.07.75.75.1.85.43.64-.64.96.11.64-.11.75v.85l-.22.53.64.42-.11.96-.21.1v.75l.21,1.07.32.53-.11,1.17-.32.11-.42.42-.53.96.32.53-.32.75.42.75v.74l.22.43.32.42v1.07l.22.74-.11.75.42.53.11.86.11.32v1.17l.22,1.07v.11l.32.64-.32,1.38.32.53.42.22h.53l.53,1.07v.21l-.21.86.85.74.75.22.11.22.42.64.64.1.53.64,1.38-.11.53.22h.32l.74.32.86.53.42.11.75-.21.32-.53,1.39.21.53-.21.1-.22.75.22,1.28-.11.74.74.53-.1.75-.22.64-.32h.53l.53-.75.85-.64.86-.32.42-.11h.11l.85-.11.86-.96.21-.11-.1-.64.21-.53.42-.75.32-.42v-.85l.42-1.28.11-.11.42-.42.11-.42.42-1.17-.22-.22Z"/>
      <path class="cls-1" d="M371.53,73.73l.11-.96-.64-.11-.64-.63-.32-.22-.11-.42-1.27.21-1.17-.21-1.17.11-.96-.11-.85.11-.11-.11-.96.11-.75-.11-.32.32h-1.6l-.53-.42-.22-.11-.64.22-.53.42h-.74l-.11.32-1.39.11-.96-.11-.32.75-.64.11-.32.21v1.71l-.1.64.42.32.74.96.54.11v-.22l.85.42.96.11h.43l.74-.22.32.11-.75.64.11.22-.32,1.38-.42.53.11.53-.11.53-.21.75.21.32-.32,1.07.11.43.1.63-.1,1.17v.64l-.22.75-.32,1.07.22.96v1.07l-.32.42-.22.11-.11.75.22.96-.22.64.53.64-.32.42.21,1.07-.42.11-.21.53v1.28l-.32.63-.21.64v.53l-.32.22-.42,1.38.21.64.22.32.22.85.21.53.22.42-.53.96v.22l-.96.22-.11-.64-.42-.86.21-.32-.21-.42.1-.86.22-.42.11-.21-.64-1.17-.11-.75-.74-.75-.43-.63-.42-.96.11-.42-.75-.64-.42-.74.11-.75-.42-.64.1-.64-.32-.64-.22-.32-.1-1.38-.32-.22-.53-.64-.42-.32-.85-.64.21-.53-.21-.22-.22-.64-.11-.96-.11-.64-.63-.96-.11-.53v-.53l-.64-.86-.32-1.17-.21-.32-.64-1.07-.22-.53.32-.32-.22-.75-.42-.75-.42-.74.42-.22.11.32,1.38-.22.32.32.96-.53.22-.53.42-.32.32-.96.11-1.28-.11-.42-.64-.53-.53-.53-.42-.22-.85.32-.75.1-.64-.63-1.07-.22-.32-.22-.96-.1-.42.32h-.42l-1.28-.22-.21.11h-1.17l-.42.22-.43-.22-.63.64-1.07.53-.42-.32-.64-.11-.42.42-.53.22-.11.42-.21.53-.32.74.53.54.32.96-.11.85.22.22.96.32.21-.32.86.11.75.74.32-.11.42.43.42.63.32.64-.22.43.22,1.27h.32l.75,1.17.32.53h.32l.42.96.53,1.28.11.53.53.64.11,1.17-.22.11.11,1.6.21.42v.22l.11.96.53.85h.43l.53.53.32-.11.75,1.07v.64l-.11.86.32.96.11.96.42.22.22.75v.63l.53.86-.22.32.64.53.22.32.74.53.43.53.32.85v.64l.42.64-.21,1.17.21.53.11.53.64.53h.11l.96,1.17.21.42v.85l.43.43v1.92l-.32.53.32.32.11.63.32.75.53.11.42.74v.96l.22.53.11,1.07-.11.42.32.64v.42l.32.42-.11.64-.64,1.07-.11.75v.75l.22.96-.32,1.27.11.22-.42.75-.32,1.07-.11,1.07.21.64-.1.53.1.42-.21.32.11,1.28-.22.53-.22.32-.32.75-.64.42-.75.96v.53l-.42.32.22.96.21.32-.53.64-.42.42-.85.96-.32.11-.42.42-.75.22-.32-.43-.64-.1-.64.32-.53-.11-.1-.42h-.64l-.96-.42-.64-.32-.43-.63-.63-.32-.75-.22-.42-.42v-.11l-.43-.96-.32-.64-.11-.53.11-.53-.22-.96.43-1.07.21-.64v-.53l.22-.75.11-.32-.32-.53-.42-.75-.42-.42-.22-1.28.32-.42.1-.64-.42-.63.32-1.5v-.42l.21-.32-.11-1.17-.53-.42-.74-.43-.64-.21-.64.1-.53.22-.75.42-.85.32h-.42l-.75.96-.42.53-.32.53.21,1.17.32.64-.11.64.42.42.22.64-.22.85-.64.32v.85l.22.53-.22.53.22.85.32.54-.11.96-.32.53.75.64v.11l.42.74v.64l-.22,1.07.22.53-.22,1.17.22.64.42.64.64.32.64.11.32.96.22.32.42.75.22.42.1.22.43.75.63.1.43.43.53.42.85.32.22.53.74-.1h1.28l.64.21.22.32.85-.11.96.21h.96l.22.11.75.42,1.71-.63.85-.75.53-.42h1.38l.22-.32.32-.42h.96l.64-1.07h.63l1.07-1.17.75-.75.11-.1.75-.64-.11-.53v-.42l.32-.96.32-.53.21-.74.11-.64-.32-.22.1-.96.11-.64.53-.74.43-.86-.32-.85.22-.96.32-.74.11-1.07-.11-.86.11-.32.22-.53.21-.32-.32-.85.53-1.07v-.64l.32-.32-.21-1.17.21-.43-.21-.63v-.75l.32-.96.11-.86.32-.32.11-.53.42-.86.32-.85-.22-.96v-1.07l.11-.43v-.63l-.32-.53.75-1.17.32-.86-.21-.53-.11-.74v-1.5l-.32-1.27.74-.96v-1.07l.11-.64.11-.85-.11-.22-.32-.53v-.42l.42-1.07.22-.96.1-1.07.11-.22.22-.64.21-.96-.63-.53.42-.53.32-.42.42-.53.22-.64.22-.64-.11-.96-.11-.22.22-1.07.42-.85.21-1.07v-.43l-.21-.32-.22-.75-.11-.74-.32-.64.42-.96-.21-.64.32-.86-.11-.32.11-1.17.42-.53.22-.42.21-.64.11-.64.22-.42.32-.53.42-.22.32-.32.64-.42.53-.43h.32l1.17.22.11.53.96-.42.32-.32.42-.53.11-.21.42-.42.32-.53.32-.54-.32-.53Z"/>
      <path class="cls-1" d="M421.64,110.41v-.75l.11-.85-.22-.75.11-.32-.32-.22v-1.07l-.64-.64h-.53l-.63-.42-.32-.32-1.17-.53-.85.64h-.32v.42l-.32.54-.75.53-.1.53-.64,1.38.11.42.1.75-.1.64-.22.64.11.96-.22,1.27-.85.22-.32.85-.53.32-.1.32-.32.86.32.64-.32.32-.53-.22-1.07.11h-.86l-.32-.11-1.07.32h-.75l-.21.32h-.96l-.53.22-1.07.11-.42.1-1.07-.53-.53-.32-.96-.75-.42-.32-.32-.75.22-.74-.64-.53-.11-.75-.11-.22-.42-1.07v-.21l.53-1.5v-1.6l-.11-.32-.1-.42-.43-.75-.32-.11.22-1.27.1-.53v-.32l.53-.85v-.64l.11-.64-.11-.64-.21-.53.11-.85.1-.53.22-.96-.53-.42-.42-.96.42-1.28-.32-.32v-.53l.42-.96-.32-.75.11-.53.11-1.07-.53-.64.42-1.28h.42l.32-.74-.11-.64v-.96l-.42-.75-.11-.53h-.22l-.1-.96.53-.42v-.54l.63-.74-.42-.53v-.53l.11-.86-.53-.53v-.85l-.42-.75.53-.42v-1.6l.11-.32-.64-1.07-.32-.74.32-1.39-.11-.42.11-.64.53-.21-.11-1.39-.32-1.07.1-.53-.21-.32.21-.96.32-.32v-.96l-.22-.43-.11-.32-.21-.53-.11-.75.32-.1.64-.86v-.53l-.11-.85-.1-.64-.43-.64-.42-.53.22-.85.11-.43-.11-.74.32-.53.53-1.07-.42-.53-.11-.96-.53-.42-.11-1.17.32-.42-.64-.86-.11-.63-.53-.53-.85-.11-.75-.53-1.17.21-.21.22-.43.75-.96-.53-.11-.11-.74-.32-.32.43-.53.21-.96.11-.53-.42-.42-.32h-1.28l-1.07.53-.86.32-.1.53-.86.53-.21.22-.43.74.11.64.32.53-.22.96.75.32.63.1.64.32.53-.11h.64l.96-.42.86.21.11.64h.32l.96-.21.64-.22.22-.22.64-.21.42.53v.96l-.22.64-.53.53-.11.53-.1.75-.32.53-.53.64.32.63-.22.96.64,1.07.32.32-.21,1.07.1.53-.63.11v.96l.21.75-.32.53.64,1.07.1.53v.22l.22.64.11,1.38.21.32v.75l-.21.42-.42.53-.22,1.07-.42.43.11.63-.22.64.11.53.21,1.28.75.11-.22.96.11.85v.53l.22.11.11,1.07-.43.75-.21.96-.64.64.32.75v.42l.22.75.22.63.32.64-.32.53-.11.43-.32,1.17.22.11v1.71l.11.64-.42.32v1.17l-.32.42.22.96.74.64.11.74.22.86-.42.85-.32.86v.74l-.21.42v.43l.21.53.22.42-.22.64-.32.21.21,1.07-.21.53.53.53-.11.75.42.75.11.53.22.53-.11,1.07-.11.42-.22,1.07-.21.75.53.21.21.75.22.53-.22.96.32.42v.96l.42.11.42.74.43,1.07.32.53.22.42.42.86.42.32.75.96.53.64.96-.32.85.22.43.53.21.74.96.53.63-.32.86.42.42.22,1.38-.32.43.32.42-.32,1.17-.32.42.22.75-.22.21-.22,1.28.11.21.22.86.11.75.21h.64l.74-.74,1.17-.43h.64l1.38-.53.53-.32.53-.53-.21-.53.64-.75.85-.85h.53l.22-.75.53-.22.63-.63.32-.86v-.64l-.22-.96.43-.64-.32-.64.42-.96.43-.21.32-.53-.42-.64Z"/>
      <path class="cls-1" d="M475.37,83.12l-.43-1.17-.32-1.17v-.43l-.42-.21-.22-.86-.53-.96-.32-.96-.11-.32-.64-1.27h-.75l-.21-.32-.75-.85-.64-.42-.74-.53-.75-.32h-.32l-.32-.64-.64-.32-.53-.42-.64-.32h-.1l-1.39.22h-1.38l-1.17-.22-.22-.63-1.27-.22-.22.11-1.28.11-.53.42-.74-.32-.43-.1-.85.42-.64-.22-.64.32-.64.1-.74-.21-.42.21h-1.28l-.53.22-.86-.32-.53.42-.63.74-.75.75h-.22l-.53.11-.85.32-.32.32-.85.53-.53.21-.53.43-.86.85-.32.75-.11.53.22.74v.75l-.86,1.17-.42.21-.32.43v1.7l-.11.64-.11.32-.64.42.11,1.39.32.21.11,1.17-.32.32.11.86-.11.96.21.64.22,1.28-.22.96.54.85-.22.32.11.42v.64l.53.96-.42.75.42.21-.32.96.11.1-.11.96-.53.74.11.86-.75.21.11,1.07.64.43v.53l.22.32-.22.85-.53,1.07v.32l.11.53-.11,1.17.11.22.21.32.32.53v2.13l.32,1.17.22.64-.22.96.11.64-.21.53-.22.74.42.75.22.32.53.85v.53l.42.96.53.11.22.42.63.86v.85l.32.42.74.64h.96l.74.32.64-.11.53.53.75-.11.64.11.96.42.32-.11.64.53.42.22,1.17.11.43.53,1.07-.11.63.32h.53l.43-.21.85-.32.42.22.43-.11.42-.42h1.17l.21.11.43-.22,1.17.32,1.28-.43.42.11.96.22.74-.22.75.22.53-.32.42-.42.22-.53.53-.42.32-.11.64-.53h.64l.96-.42.64-.42.32.32.96-.86.1-.53.22-.32-.22-.32.53-.86.75-.42v-.42l.42-.42-.32-.75.22-.64.74-.42v-1.71l-.53-.32-.21-.53-.22-1.39.42-.42.22-.11-.32-1.17-.53-.32-.42-.32h-.53l-.42-.85-.75.32-.64-.21-.53.11-.32.1-.64.11-1.07,1.07-.42.32-.11.85.22.64-.11.64v.42l.21,1.28-.32.53-.32.85-.54.85-.53.54-.96.42-.74.74-1.28.86-.75.32-.42.11-.53.32-.22.32-1.17-.32-.22.32-1.07-.32-.86.22-.1.32-1.07-.63h-.75l-.42-.22-.96-.32-.32-.11-.53.11-.42.53-.86-.53v-.43l-.96-.96-.42.11-.11-1.28-.22-.42-.96-.96-.32-.32-.42-.21-.53-.86.21-.74.53-.86v-.96l-.42-.53-.11-.64-.21-.74v-.64l-.54-.22.32-.64-.11-.74-.11-.75.43-.22-.11-.96-.53-.64-.22-.64-.11-.53v-.42l-.11-.74.22-.64.42-.86.32-.21.64-.43.21.22,1.07.53.86-.32.21.53.64-.11.75.32.85-.11.75-.32,1.17-.42.42.21.32.22.43.22,1.27-.22.64.11.86.53.63-.22.75.11.85-.11.75.11h.75l.85-.32h.32l.53-.32.53.11.85-.22.42.22.86.11.64.11.96.21.64.11.42-.22.53-.21.32-.53h.64l.86.21.74-.32.43-.32.21-.22.11-.64.42-.32.22-.86-.42-.32-.43-.64.22-.64.64-.75-.32-.74v-1.28l-.1-.85-.32-.96v-.75l.53-.86.11-.1.11-.64-.22-.42.22-.96.21-.96v-.11l.11-.74-.21-.96ZM468.76,91.65l-.43.85-.42.64-1.07.22-.11.1-.96-.21-.22.21-.32.22-.96-.11-.22.22-1.07-.32-.64-.32-.32-.32-.86-.11h-.32l-.75.42-.32-.22h-1.17l-.53.22-.32.11-1.17.11-.86-.11h-1.49l-1.17-.11-.96.42-.53-.21-.75.32-.11.11h-.74l-1.6-.96v-1.17l.1-.75v-.53l.11-.74v-.43l.43-.96-.32-.22.11-.42v-.64l.32-.74.11-1.07-.32-.64v-.53l-.32-.75.43-.64.1-.74.53-.43.11-.32.22-.53.32-.22.53-.85.75-.53.11-.32.74-.85.53-.11,1.07-.11.53.64,1.17-.42.32-.11.53-.53,1.17.32h.63l.43-.53.53.32.42-.32,1.28.42h1.07l.63.53,1.39.42h.53l.75.64.1.42.96,1.17.1.85.22.64.11.96v.75l.75,1.17v.53l.21.22.64,1.07-.11.53v.42l.11.64v.21l-.11.86.22,1.07.21.53-.1.64Z"/>
      <g>
        <path class="cls-1" d="M279.54,20.88c.05-.55-.07-1.09-.06-1.64.01-.55.37-1.09.36-1.63-.01-.55-.3-1.09-.32-1.63-.04-.56-.29-1.09-.35-1.61-.05-.57.4-1.17.32-1.69-.07-.57-.49-1.07-.58-1.58-.09-.59-.3-1.11-.4-1.58-.13-.69.19-1.32.12-1.69-.12-.55-.49-1.05-.66-1.59-.16-.53-.37-1.06-.56-1.58-.19-.53-.32-1.09-.51-1.61-.18-.51-.41-.93-.67-1.29-.3-.42-.59-.95-1.07-1.09-.4-.12-.92.22-1.5.33-.55.11-1.09.04-1.61.12-.52.08-1.09,0-1.63.16-.53.17-1.06.34-1.58.52-.53.17-.92.73-1.45.91-.55.19-1.22,0-1.77.21-.54.19-1.1.35-1.64.56s-1,.62-1.53.84-1.13.3-1.66.54c-.52.22-.79.91-1.29,1.19-.49.28-1.19.21-1.66.5-.44.27-.9.51-1.34.78-.42.28-.74.75-1.17,1.04-.42.29-.82.63-1.25.92-.42.3-.83.6-1.25.9-.42.3-.73.75-1.15,1.05-.42.3-1.09.3-1.54.58-.45.3-1.06.55-1.3,1.03-.05.09,0,.24-.04.34-.27.64-.05,1.38-.09,2.07-.04.69.04,1.38.04,2.06,0,.7-.42,1.4-.41,2.1.01.69.08,1.39.11,2.09.04.55.06,1.11.1,1.66.04.55-.01,1.12.06,1.68.04.29.31,1.18.61,1.38.14.09.53.65,1.21,1.04.42.24.89.51,1.36.78.48.26,1.04.39,1.45.62.71.39,1.37.45,1.5.51.11.05.55.7,1.38,1.07.46.2,1.01.41,1.56.66.51.22,1.04.48,1.55.7.56.24,1.19.25,1.66.46.78.34,1.28.82,1.47.9.34.14,1.14.41,1.93.71.82.3,1.71.28,2.04.34.32.06,1.18.19,2.05.34.86.14,1.71.64,2.02.64.25,0,.81-.15,1.44.04.44.14.91.35,1.38.48.54.17,1.02.4,1.38.45,1.09.17,1.67-.64,2.02-.81.1-.05.22-.51.45-1.43.11-.45.4-.94.53-1.55.11-.5.45-.98.58-1.55.1-.51.13-1.07.24-1.62.1-.52-.22-1.13-.12-1.68.1-.53.66-.98.76-1.52.1-.54-.22-1.15-.13-1.68.09-.54.55-1.02.63-1.55.09-.54-.05-1.12,0-1.66ZM256.37,14.67c-.59.44-1.25.86-1.99.87-.45,0-.81-.39-1.1-.73-.08-.09-.55.05-.59-.05-.27-.63.16-1.47.57-2.02.4-.55,1.02-.84,1.73-.71.56.12,1.13.58,1.54,1.13.42.58.53.99-.16,1.5ZM274.92,7.16c-.26.35-.92.29-1.32.48-.4.17-.78.21-1.23.27-.43.07-.84.39-1.27.43-.53.05-1.02.35-1.54.44-.53.09-1.13-.22-1.65-.09-.51.13-.94.55-1.45.72-.5.17-.99.35-1.48.55-.49.2-1.08.2-1.56.45-.48.24-.93.53-1.38.81-.47.27-.9.54-1.43.68-.53.14-1.28.42-1.69.06-.3-.27-.09-.87-.03-1.27.07-.4.3-.66.66-.96.36-.3.55-.85.84-1.06.65-.45,1.46-.67,2.15-1.04.55-.29,1.07-.65,1.63-.9.57-.25,1.19-.37,1.76-.6.57-.23,1.13-.49,1.71-.72.57-.22,1.12-.48,1.71-.69.58-.2,1.14-.45,1.73-.63.38-.12.9-.23,1.39-.37.5-.14.98-.16,1.39,0,.18.06.4.1.55.26.42.47.86,1.25.89,1.76.04.46-.11,1.06-.37,1.41Z"/>
        <path class="cls-1" d="M233.62,13.2c-.42-.69-.33-.49-1.14-1.08-.38-.28-.86-.55-1.35-.91-.41-.3-.97-.46-1.44-.79-.43-.3-.79-.74-1.25-1.06s-.81-.74-1.27-1.04-1.08-.36-1.53-.65-.71-.95-1.16-1.22c-.49-.3-1.12-.32-1.56-.57-.53-.3-1.06-.43-1.49-.63-.46-.21-.92-.52-1.45-.74-.49-.2-.88-.69-1.4-.9s-1.1-.17-1.61-.36-1.03-.37-1.54-.55-1.04-.35-1.55-.51c-.54-.18-1.02-.47-1.51-.63-.56-.18-1.05-.47-1.52-.61-.64-.19-1.18-.39-1.57-.47-.59-.13-1.01-.25-1.35-.36-.9-.27-1-.06-1.21.27-.09.14-.3.67-.6,1.45-.17.44-.41.94-.6,1.48-.18.49-.53.94-.7,1.45s-.28,1.07-.42,1.55c-.18.6-.4,1.12-.48,1.53-.08.37,0,.96-.13,1.64-.09.48-.35.99-.44,1.59-.08.5.11,1.08.03,1.66-.07.52-.37,1.03-.43,1.6-.05.53-.34,1.06-.38,1.62s-.01,1.1-.03,1.65.28,1.09.3,1.64.03,1.09.08,1.64.17,1.08.26,1.62-.18,1.13-.09,1.67.24,1.07.33,1.6.63,1,.73,1.53-.14,1.15-.04,1.67c.11.56.34,1.07.44,1.58.12.57.16,1.12.27,1.61.13.6.38,1.11.49,1.56.23.92.42,1.27.52,1.32.35.17.91,1.32,2,1.14.36-.06.87-.34,1.41-.5.46-.14.89-.49,1.34-.62.62-.19,1.17-.54,1.42-.54.32,0,1.19.13,2.06-.01s1.76-.12,2.07-.18,1.19-.3,2-.6,1.47-.87,1.81-1.01c.18-.08.68-.54,1.47-.88.47-.2,1.18-.04,1.73-.28.51-.22.93-.72,1.44-.95.56-.24,1.1-.47,1.56-.68.83-.37,1.54-.4,1.66-.45.13-.05.67-.4,1.37-.79.42-.23.91-.48,1.38-.74s.75-.88,1.17-1.12c.68-.39,1.45-.3,1.59-.39.12-.08.31-.81.42-1.73.06-.47-.26-1.06-.21-1.68.04-.51.29-1.05.32-1.63.03-.53-.05-1.09-.04-1.65s.15-1.1.16-1.65-.03-1.11-.04-1.66-.08-1.12-.11-1.65c-.03-.58-.19-1.04-.24-1.56Z"/>
        <path class="cls-1" d="M235.69,13.27c-.14.31-.07.96-.11,1.26-.07.47-.07.96-.11,1.44s.3.97.29,1.45c-.01.61-.38,1.23-.35,1.84s.06,1.11-.02,1.73c-.07.56.22,1.11.24,1.65s-.26,1.11-.2,1.67c.05.39.07.71.47.93.36.2.86.04,1.26.12.38.07.89.1,1.46.09.48,0,.98-.08,1.47-.1.54-.02,1.06-.17,1.48-.17.56,0,1.14.53,1.69.56.7.04,1.35.09,1.73.04.67-.08.62-.51.92-1.14.21-.48.78-.89.96-1.43s.22-1.2.2-1.73c-.03-.59-.03-1.18-.07-1.76s-.46-1.14-.51-1.73.11-1.19.05-1.77c-.06-.65-.2-1.31-.45-1.92-.16-.4-.34-.7-.72-.95-.43-.28-.82-.46-1.34-.46s-1.05-.07-1.53-.08c-.53,0-1.07.28-1.61.28s-1.07-.42-1.6-.42c-.81,0-1.61.21-2.41.41-.25.06-.54.15-.7.38-.02.03-.49-.18-.5-.15Z"/>
      </g>
    </g>
  </g>
</svg>